<svg viewBox="0 0 195 170" fill="none" xmlns="http://www.w3.org/2000/svg">
<g opacity="0.4">
<path d="M61.6804 85.8912C64.1234 85.4071 65.8326 83.5776 65.7445 81.5409C65.5974 78.1352 65.5137 75.8386 65.5207 75.3973C65.6326 68.5239 67.1759 61.3785 68.7253 54.637C71.5002 42.5616 74.3699 30.0749 68.6306 17.698C65.6724 11.3187 60.6418 6.1257 54.4655 3.07499C47.4511 -0.389771 39.4881 -0.938288 31.4387 1.48887C21.9837 4.33937 14.0945 9.78835 8.62411 17.2471C3.81854 23.7995 0.897249 31.7825 0.176251 40.3337C-0.226263 45.1086 0.0590214 49.616 1.04891 54.1137C1.3469 55.4667 2.94343 56.3675 4.6125 56.1268C6.28281 55.8854 7.39526 54.5931 7.09768 53.2401C6.19673 49.1478 5.93768 45.0369 6.30577 40.673C7.73096 23.7775 17.927 10.8731 33.5816 6.15359C47.5995 1.92682 58.3976 9.78536 62.879 19.4485C69.534 33.7999 63.1925 49.0761 60.6266 63.4876C59.9277 67.4119 59.4408 71.3648 59.3769 75.3319C59.3687 75.8525 59.4371 77.8208 59.581 81.1853C52.1829 82.6821 31.0484 87.3983 23.5269 89.0817C21.3184 84.5863 19.1583 80.4976 17.2441 76.8735C14.7049 72.0667 12.5119 67.9153 10.7211 63.8688C10.1485 62.5749 8.39006 61.9025 6.79272 62.366C5.19537 62.8299 4.36493 64.2546 4.93755 65.5482C6.79067 69.7358 9.0172 73.951 11.5954 78.8315C13.6678 82.7551 15.8111 86.8119 18.0815 91.4587C18.9054 93.1447 20.8963 94.193 23.0371 94.193C23.5101 94.193 23.9905 94.1418 24.4672 94.0353C31.4616 92.4681 54.816 87.2512 61.6804 85.8912Z" fill="#3EE8D4"/>
<path d="M70.3184 97.4304C70.3135 97.4035 70.3077 97.3766 70.302 97.35C70.038 96.1829 69.1813 95.144 67.9521 94.4988C66.7228 93.854 65.2017 93.6455 63.7794 93.9277L27.3429 101.149C25.8653 101.442 24.6085 102.234 23.8949 103.322C23.1989 104.383 23.0809 105.634 23.565 106.767L30.3773 124.995C30.3954 125.043 30.4151 125.09 30.4364 125.137C33.7835 132.463 42.2544 137.047 51.4585 137.046C53.3952 137.046 55.366 136.843 57.3265 136.42C62.8104 135.236 67.5024 132.445 70.5389 128.561C73.566 124.689 74.6772 120.076 73.6701 115.567L70.3184 97.4304ZM55.7443 131.611C47.5743 133.375 39.2023 129.88 36.2298 123.478L29.6301 105.819L64.3828 98.9318L67.6004 116.343C67.6053 116.37 67.6111 116.397 67.6168 116.424C69.1445 123.173 63.929 129.844 55.7443 131.611Z" fill="#3EE8D4"/>
<path d="M135.065 35.9264C127.253 33.0334 119.262 33.1134 111.956 36.1571C105.523 38.8373 100.041 43.7218 96.5205 49.9106C89.6892 61.9182 91.4345 74.5408 93.1229 86.7476C94.0808 93.6748 94.9735 100.661 94.4624 107.641C94.43 108.083 94.1414 110.368 93.6902 113.755C93.42 115.782 94.9616 117.707 97.355 118.333C104.074 120.09 126.904 126.665 133.741 128.638C134.335 128.809 134.942 128.891 135.539 128.891C137.536 128.891 139.427 127.978 140.342 126.443C143.022 121.941 145.523 118.02 147.941 114.228C156.506 100.798 162.694 91.0946 162.771 76.5041C162.815 68.2139 160.491 59.8672 156.227 53.0015C151.352 45.1526 144.035 39.248 135.065 35.9264ZM142.482 111.944C140.248 115.446 137.728 119.399 135.123 123.753C127.77 121.632 107.11 115.687 99.8693 113.761C100.314 110.414 100.558 108.455 100.596 107.935C101.127 100.681 100.225 93.3936 99.2294 86.1938C97.5616 74.1333 95.9864 62.7423 102.101 51.9938C107.434 42.6188 118.905 35.4157 132.511 40.4527C140.196 43.2988 146.498 48.4115 150.738 55.2381C154.576 61.4168 156.667 68.9613 156.627 76.4825C156.556 89.8747 150.957 98.6543 142.482 111.944Z" fill="#3EE8D4"/>
<path d="M130.238 135.565L114.311 131.397C112.694 130.975 110.964 131.693 110.443 133C109.921 134.308 110.807 135.711 112.422 136.133L127.538 140.089L119.377 157.313C115.84 163.524 107.176 166.518 99.1861 164.28C91.1809 162.037 86.5758 155.078 88.7023 148.436C88.7105 148.41 88.7183 148.383 88.7261 148.357L93.4927 131.18L98.7672 132.56C100.383 132.982 102.114 132.264 102.635 130.957C103.157 129.649 102.271 128.246 100.656 127.824L94.5424 126.224C93.1488 125.86 91.6134 125.977 90.3296 126.549C89.0458 127.12 88.0985 128.106 87.7309 129.255C87.7223 129.281 87.7145 129.307 87.7071 129.334L82.7421 147.227C81.3345 151.664 82.0301 156.33 84.703 160.37C87.3841 164.422 91.8146 167.481 97.178 168.983C99.6353 169.671 102.137 170 104.598 170C113.183 169.999 121.249 165.997 125.006 159.309C125.032 159.263 125.056 159.216 125.078 159.169L133.503 141.389C134.087 140.287 134.081 139.034 133.482 137.934C132.868 136.808 131.685 135.944 130.238 135.565Z" fill="#3EE8D4"/>
<path d="M135.638 25.5289C135.792 27.3827 137.318 28.9037 139.527 29.4034C140.017 29.5143 140.511 29.5681 140.996 29.5681C142.699 29.5681 144.307 28.906 145.332 27.7227L157.813 13.3131C158.816 12.1553 159.056 10.6715 158.456 9.34336C157.856 8.01557 156.489 7.00818 154.802 6.64859L140.882 3.68354C139.226 3.33092 137.447 3.64735 136.126 4.53122C134.805 5.41476 134.084 6.76945 134.199 8.15402L135.638 25.5289ZM152.118 11.2237L141.615 23.3482L140.405 8.72877L152.118 11.2237Z" fill="#3EE8D4"/>
<path d="M194.484 27.7624L185.742 12.4305C184.992 11.1143 183.488 10.1952 181.72 9.97176C179.952 9.74831 178.174 10.2523 176.965 11.3205L154.052 31.5502C152.469 32.9477 152.183 34.9213 153.322 36.5782C154.289 37.9827 156.033 38.8005 157.943 38.8005C158.286 38.8005 158.635 38.7739 158.986 38.7198L190.64 33.822C192.264 33.5706 193.63 32.7432 194.385 31.5519C195.142 30.3599 195.178 28.979 194.484 27.7624ZM160.227 33.4604L180.673 15.4085L188.474 29.0899L160.227 33.4604Z" fill="#3EE8D4"/>
</g>
</svg>
