<svg viewBox="0 0 138 176" fill="none" xmlns="http://www.w3.org/2000/svg">
<g opacity="0.4">
<path d="M121.498 58.9805C112.435 58.9805 105.066 65.5409 105.066 73.608V99.2059C105.066 107.273 112.435 113.833 121.498 113.833C124.488 113.833 127.298 113.117 129.713 111.866V125.872C129.713 149.48 108.147 168.686 81.6178 168.686H63.4525C56.3705 168.686 49.2882 167.194 42.9538 164.371C30.1289 158.659 20.9435 147.754 18.3801 135.189L14.9214 118.316C14.7735 117.548 14.6915 116.766 14.6915 115.983C14.6915 109.957 19.2925 104.779 25.8815 103.404L77.5755 92.5796C78.1998 95.6075 77.7808 98.7304 76.3266 101.612C74.4041 105.459 70.8876 108.37 66.4429 109.811L48.7379 115.545C45.9361 116.452 43.7017 118.382 42.5925 120.847C41.4915 123.312 41.6313 126.077 42.9622 128.446L47.9904 137.405C49.009 139.219 51.4657 139.936 53.5033 139.044C55.5325 138.137 56.3544 135.943 55.3438 134.136L50.3157 125.169C49.9213 124.482 50.0939 123.86 50.2337 123.553C50.365 123.239 50.7185 122.683 51.5481 122.412L69.2531 116.678C75.8013 114.557 80.9773 110.271 83.8279 104.603C86.679 98.9354 86.8184 92.6383 84.2304 86.8749C83.4744 85.1926 81.4618 84.2787 79.4815 84.6736L24.0079 96.2952C13.6805 98.4527 6.47534 106.549 6.47534 115.991C6.47534 117.198 6.60667 118.405 6.83697 119.619L10.2957 136.513C13.3193 151.324 24.1557 164.196 39.2813 170.924C46.7414 174.245 55.0969 176 63.4444 176H81.6097C112.666 176 137.929 153.51 137.929 125.872V73.6077C137.929 65.5409 130.56 58.9805 121.498 58.9805ZM129.714 99.2059C129.714 103.236 126.033 106.519 121.498 106.519C116.963 106.519 113.282 103.236 113.282 99.2059V73.6077C113.282 69.5777 116.963 66.2941 121.498 66.2941C126.033 66.2941 129.714 69.5781 129.714 73.6077V99.2059Z" fill="#3EE8D4"/>
<path d="M113.282 73.6082V58.9806C113.282 50.9134 105.912 44.353 96.8498 44.353C87.7876 44.353 80.418 50.9134 80.418 58.9806V95.5494C80.418 103.617 87.7876 110.177 96.8498 110.177C105.904 110.177 113.282 103.617 113.282 95.5494V80.9218C113.282 78.9032 111.441 77.2648 109.174 77.2648C106.906 77.2648 105.066 78.9032 105.066 80.9218V95.5494C105.066 99.5793 101.385 102.863 96.8498 102.863C92.3147 102.863 88.6341 99.579 88.6341 95.5494V58.9809C88.6341 54.951 92.3147 51.6673 96.8498 51.6673C101.385 51.6673 105.066 54.9513 105.066 58.9809V73.6085C105.066 75.6271 106.906 77.2655 109.174 77.2655C111.441 77.2655 113.282 75.6268 113.282 73.6082Z" fill="#3EE8D4"/>
<path d="M71.5865 0.470459C62.7873 0.470459 55.4997 6.3435 54.6043 14.3592L52.3202 68.7148L32.3314 28.8185C30.4335 24.9496 26.7445 21.98 22.2178 20.693C17.6907 19.4132 12.745 19.9179 8.67816 22.0973C2.0807 25.6151 -0.90975 32.629 1.40712 39.1603L23.097 100.303C23.6558 101.868 25.266 102.863 27.016 102.863C27.4269 102.863 27.8459 102.812 28.2565 102.695C30.4174 102.088 31.6166 100.033 30.935 98.1091L9.23697 36.959C8.07045 33.675 9.58204 30.1425 12.8929 28.3653C14.9467 27.2682 17.4446 27.0121 19.7122 27.6631C21.9963 28.3142 23.853 29.7986 24.8143 31.7733L47.8678 77.784C49.1002 80.2486 52.0167 81.5798 55.0237 81.0899C58.0061 80.5705 60.1424 78.3253 60.2571 75.6413L62.8039 14.857C63.2557 10.827 67.0267 7.78476 71.5865 7.78476C76.4587 7.78476 80.4185 11.3101 80.4185 15.6469V58.9808C80.4185 60.9993 82.2589 62.6377 84.5265 62.6377C86.7941 62.6377 88.6346 60.9993 88.6346 58.9808V15.6469C88.6346 7.27943 80.9938 0.470459 71.5865 0.470459Z" fill="#3EE8D4"/>
</g>
</svg>
