<svg viewBox="0 0 169 173" fill="none" xmlns="http://www.w3.org/2000/svg">
<path opacity="0.4" d="M144.251 111.835C135.047 102.414 124.093 95.4396 112.14 91.2176C124.942 82.1922 133.352 67.0875 133.352 50.0078C133.352 22.4336 111.437 0 84.5 0C57.5633 0 35.6484 22.4336 35.6484 50.0078C35.6484 67.0875 44.0585 82.1922 56.8599 91.2176C44.9078 95.4396 33.9532 102.414 24.7496 111.835C8.78965 128.173 0 149.895 0 173H13.2031C13.2031 132.756 45.1867 100.016 84.5 100.016C123.813 100.016 155.797 132.756 155.797 173H169C169 149.895 160.21 128.173 144.251 111.835ZM84.5 86.5C64.8435 86.5 48.8516 70.1299 48.8516 50.0078C48.8516 29.8857 64.8435 13.5156 84.5 13.5156C104.156 13.5156 120.148 29.8857 120.148 50.0078C120.148 70.1299 104.156 86.5 84.5 86.5Z" fill="#3EE8D4"/>
</svg>
